{
.appVersion = "3135";
.formatVersion = 3;
customParameters = (
{
name = panose;
value = (
0,
0,
0,
0,
0,
0,
0,
0,
0,
0
);
},
{
name = fsType;
value = (
);
},
{
name = glyphOrder;
value = (
.notdef,
.null,
nonmarkingreturn,
space,
exclam,
quotedbl,
numbersign,
dollar,
percent,
ampersand,
quotesingle,
parenleft,
parenright,
asterisk,
plus,
comma,
hyphen,
period,
slash,
zero,
one,
two,
three,
four,
five,
six,
seven,
eight,
nine,
colon,
semicolon,
less,
equal,
greater,
question,
at,
A,
B,
C,
D,
E,
F,
G,
H,
I,
J,
K,
L,
M,
N,
O,
P,
Q,
R,
S,
T,
U,
V,
W,
X,
Y,
Z,
bracketleft,
backslash,
bracketright,
asciicircum,
underscore,
grave,
a,
b,
c,
d,
e,
f,
g,
h,
i,
j,
k,
l,
m,
n,
o,
p,
q,
r,
s,
t,
u,
v,
w,
x,
y,
z,
braceleft,
bar,
braceright,
asciitilde,
section,
registered,
copyright,
Euro,
Scaron,
scaron,
Zcaron,
zcaron,
Eth,
eth,
Cacute,
cacute,
Ccaron,
ccaron,
".001",
".002",
".003",
".004",
".005",
".006",
".007",
".008"
);
}
);
date = "2023-03-05 06:44:56 +0000";
familyName = RetroBitmap;
fontMaster = (
{
customParameters = (
{
name = typoAscender;
value = 750;
},
{
name = typoDescender;
value = -170;
},
{
name = typoLineGap;
value = 30;
},
{
name = winAscent;
value = 1375;
},
{
name = winDescent;
value = 375;
},
{
name = hheaAscender;
value = 1375;
},
{
name = hheaDescender;
value = -375;
},
{
name = strikeoutPosition;
value = 250;
},
{
name = strikeoutSize;
value = 50;
}
);
id = m01;
metricValues = (
{
pos = 1000;
},
{
},
{
pos = -170;
},
{
}
);
name = Regular;
}
);
glyphs = (
{
glyphname = .notdef;
layers = (
{
layerId = m01;
shapes = (
{
closed = 1;
nodes = (
(375,625,l),
(375,0,l),
(0,0,l),
(0,625,l)
);
},
{
closed = 1;
nodes = (
(250,500,l),
(125,500,l),
(125,125,l),
(250,125,l)
);
}
);
width = 500;
}
);
note = ".notdef";
},
{
glyphname = exclam;
layers = (
{
layerId = m01;
shapes = (
{
closed = 1;
nodes = (
(124,124,l),
(124,0,l),
(0,0,l),
(0,124,l)
);
},
{
closed = 1;
nodes = (
(124,874,l),
(124,250,l),
(0,250,l),
(0,874,l)
);
}
);
width = 250;
}
);
note = exclam;
unicode = 33;
},
{
glyphname = quotedbl;
layers = (
{
layerId = m01;
shapes = (
{
closed = 1;
nodes = (
(124,874,l),
(124,625,l),
(0,625,l),
(0,874,l)
);
},
{
closed = 1;
nodes = (
(374,874,l),
(374,625,l),
(250,625,l),
(250,874,l)
);
}
);
width = 500;
}
);
note = quotedbl;
unicode = 34;
},
{
glyphname = numbersign;
layers = (
{
layerId = m01;
shapes = (
{
closed = 1;
nodes = (
(0,500,l),
(0,624,l),
(125,624,l),
(125,749,l),
(249,749,l),
(249,624,l),
(249,500,l),
(125,500,l)
);
},
{
closed = 1;
nodes = (
(375,749,l),
(499,749,l),
(499,624,l),
(624,624,l),
(624,500,l),
(499,500,l),
(375,500,l),
(375,624,l)
);
},
{
closed = 1;
nodes = (
(249,125,l),
(125,125,l),
(125,250,l),
(0,250,l),
(0,374,l),
(125,374,l),
(249,374,l),
(249,250,l)
);
},
{
closed = 1;
nodes = (
(624,374,l),
(624,250,l),
(499,250,l),
(499,125,l),
(375,125,l),
(375,250,l),
(375,374,l),
(499,374,l)
);
},
{
closed = 1;
nodes = (
(374,500,l),
(250,500,l),
(250,624,l),
(374,624,l)
);
},
{
closed = 1;
nodes = (
(499,375,l),
(375,375,l),
(375,499,l),
(499,499,l)
);
},
{
closed = 1;
nodes = (
(249,375,l),
(125,375,l),
(125,499,l),
(249,499,l)
);
},
{
closed = 1;
nodes = (
(374,250,l),
(250,250,l),
(250,374,l),
(374,374,l)
);
}
);
width = 750;
}
);
note = numbersign;
unicode = 35;
},
{
glyphname = dollar;
layers = (
{
layerId = m01;
shapes = (
{
closed = 1;
nodes = (
(125,0,l),
(125,124,l),
(250,124,l),
(250,375,l),
(125,375,l),
(125,499,l),
(250,499,l),
(250,750,l),
(125,750,l),
(125,874,l),
(499,874,l),
(499,750,l),
(374,750,l),
(374,499,l),
(499,499,l),
(499,375,l),
(374,375,l),
(374,124,l),
(499,124,l),
(499,0,l),
(374,0,l),
(374,-125,l),
(250,-125,l),
(250,0,l)
);
},
{
closed = 1;
nodes = (
(124,249,l),
(124,125,l),
(0,125,l),
(0,249,l)
);
},
{
closed = 1;
nodes = (
(624,374,l),
(624,125,l),
(500,125,l),
(500,374,l)
);
},
{
closed = 1;
nodes = (
(124,749,l),
(124,500,l),
(0,500,l),
(0,749,l)
);
},
{
closed = 1;
nodes = (
(624,749,l),
(624,625,l),
(500,625,l),
(500,749,l)
);
},
{
closed = 1;
nodes = (
(374,875,l),
(250,875,l),
(250,999,l),
(374,999,l)
);
}
);
width = 750;
}
);
note = dollar;
unicode = 36;
},
{
glyphname = percent;
layers = (
{
layerId = m01;
shapes = (
{
closed = 1;
nodes = (
(749,124,l),
(749,0,l),
(625,0,l),
(625,124,l)
);
},
{
closed = 1;
nodes = (
(749,374,l),
(749,250,l),
(625,250,l),
(625,374,l)
);
},
{
closed = 1;
nodes = (
(874,249,l),
(874,125,l),
(750,125,l),
(750,249,l)
);
},
{
closed = 1;
nodes = (
(249,624,l),
(249,500,l),
(125,500,l),
(125,624,l)
);
},
{
closed = 1;
nodes = (
(124,749,l),
(124,625,l),
(0,625,l),
(0,749,l)
);
},
{
closed = 1;
nodes = (
(249,874,l),
(249,750,l),
(125,750,l),
(125,874,l)
);
},
{
closed = 1;
nodes = (
(874,874,l),
(874,750,l),
(750,750,l),
(750,874,l)
);
},
{
closed = 1;
nodes = (
(624,249,l),
(624,125,l),
(500,125,l),
(500,249,l),
(500,249,l)
);
},
{
closed = 1;
nodes = (
(374,374,l),
(374,250,l),
(250,250,l),
(250,374,l),
(250,374,l)
);
},
{
closed = 1;
nodes = (
(249,249,l),
(249,125,l),
(125,125,l),
(125,249,l),
(125,249,l)
);
},
{
closed = 1;
nodes = (
(124,124,l),
(124,0,l),
(0,0,l),
(0,124,l),
(0,124,l)
);
},
{
closed = 1;
nodes = (
(749,749,l),
(749,625,l),
(625,625,l),
(625,749,l)
);
},
{
closed = 1;
nodes = (
(624,624,l),
(624,500,l),
(500,500,l),
(500,624,l)
);
},
{
closed = 1;
nodes = (
(499,499,l),
(499,375,l),
(375,375,l),
(375,499,l)
);
},
{
closed = 1;
nodes = (
(374,749,l),
(374,625,l),
(250,625,l),
(250,749,l)
);
}
);
width = 1000;
}
);
note = percent;
unicode = 37;
},
{
glyphname = ampersand;
layers = (
{
layerId = m01;
shapes = (
{
closed = 1;
nodes = (
(499,0,l),
(499,124,l),
(125,124,l),
(125,0,l)
);
},
{
closed = 1;
nodes = (
(749,0,l),
(749,124,l),
(625,124,l),
(625,0,l)
);
},
{
closed = 1;
nodes = (
(624,125,l),
(624,249,l),
(500,249,l),
(500,125,l)
);
},
{
closed = 1;
nodes = (
(124,125,l),
(124,374,l),
(0,374,l),
(0,125,l)
);
},
{
closed = 1;
nodes = (
(499,250,l),
(499,499,l),
(249,499,l),
(249,749,l),
(125,749,l),
(125,375,l),
(375,375,l),
(375,250,l)
);
},
{
closed = 1;
nodes = (
(749,250,l),
(749,374,l),
(625,374,l),
(625,250,l)
);
},
{
closed = 1;
nodes = (
(499,874,l),
(499,750,l),
(250,750,l),
(250,874,l),
(250,874,l)
);
},
{
closed = 1;
nodes = (
(624,749,l),
(624,500,l),
(500,500,l),
(500,749,l),
(500,749,l)
);
}
);
width = 875;
}
);
note = ampersand;
unicode = 38;
},
{
glyphname = quotesingle;
layers = (
{
layerId = m01;
shapes = (
{
closed = 1;
nodes = (
(124,874,l),
(124,625,l),
(0,625,l),
(0,874,l)
);
}
);
width = 250;
}
);
note = quotesingle;
unicode = 39;
},
{
glyphname = parenleft;
layers = (
{
layerId = m01;
shapes = (
{
closed = 1;
nodes = (
(124,749,l),
(124,125,l),
(0,125,l),
(0,749,l)
);
},
{
closed = 1;
nodes = (
(374,-1,l),
(374,-125,l),
(250,-125,l),
(250,-1,l)
);
},
{
closed = 1;
nodes = (
(249,124,l),
(249,0,l),
(125,0,l),
(125,124,l)
);
},
{
closed = 1;
nodes = (
(249,874,l),
(249,750,l),
(125,750,l),
(125,874,l)
);
},
{
closed = 1;
nodes = (
(374,999,l),
(374,875,l),
(250,875,l),
(250,999,l)
);
}
);
width = 500;
}
);
note = parenleft;
unicode = 40;
},
{
glyphname = parenright;
layers = (
{
layerId = m01;
shapes = (
{
closed = 1;
nodes = (
(124,-1,l),
(124,-125,l),
(0,-125,l),
(0,-1,l)
);
},
{
closed = 1;
nodes = (
(249,124,l),
(249,0,l),
(125,0,l),
(125,124,l)
);
},
{
closed = 1;
nodes = (
(374,749,l),
(374,125,l),
(250,125,l),
(250,749,l)
);
},
{
closed = 1;
nodes = (
(249,874,l),
(249,750,l),
(125,750,l),
(125,874,l)
);
},
{
closed = 1;
nodes = (
(124,999,l),
(124,875,l),
(0,875,l),
(0,999,l)
);
}
);
width = 500;
}
);
note = parenright;
unicode = 41;
},
{
glyphname = asterisk;
layers = (
{
layerId = m01;
shapes = (
{
closed = 1;
nodes = (
(124,624,l),
(124,500,l),
(0,500,l),
(0,624,l)
);
},
{
closed = 1;
nodes = (
(374,624,l),
(374,500,l),
(250,500,l),
(250,624,l)
);
},
{
closed = 1;
nodes = (
(249,749,l),
(249,625,l),
(125,625,l),
(125,749,l)
);
},
{
closed = 1;
nodes = (
(374,874,l),
(374,750,l),
(250,750,l),
(250,874,l)
);
},
{
closed = 1;
nodes = (
(124,874,l),
(124,750,l),
(0,750,l),
(0,874,l)
);
}
);
width = 500;
}
);
note = asterisk;
unicode = 42;
},
{
glyphname = plus;
layers = (
{
layerId = m01;
shapes = (
{
closed = 1;
nodes = (
(0,250,l),
(0,374,l),
(250,374,l),
(250,624,l),
(374,624,l),
(374,374,l),
(624,374,l),
(624,250,l),
(374,250,l),
(374,0,l),
(250,0,l),
(250,250,l)
);
}
);
width = 750;
}
);
note = plus;
unicode = 43;
},
{
glyphname = comma;
layers = (
{
layerId = m01;
shapes = (
{
closed = 1;
nodes = (
(124,124,l),
(124,-125,l),
(0,-125,l),
(0,0,l),
(0,124,l)
);
}
);
width = 250;
}
);
note = comma;
unicode = 44;
},
{
glyphname = hyphen;
layers = (
{
layerId = m01;
shapes = (
{
closed = 1;
nodes = (
(0,499,l),
(374,499,l),
(374,375,l),
(125,375,l),
(0,375,l)
);
}
);
width = 500;
}
);
note = hyphen;
unicode = (45,173);
},
{
glyphname = period;
layers = (
{
layerId = m01;
shapes = (
{
closed = 1;
nodes = (
(124,124,l),
(124,0,l),
(0,0,l),
(0,124,l)
);
}
);
width = 250;
}
);
note = period;
unicode = 46;
},
{
glyphname = slash;
layers = (
{
layerId = m01;
shapes = (
{
closed = 1;
nodes = (
(249,749,l),
(249,125,l),
(125,125,l),
(125,749,l)
);
},
{
closed = 1;
nodes = (
(374,999,l),
(374,750,l),
(250,750,l),
(250,999,l)
);
},
{
closed = 1;
nodes = (
(124,-125,l),
(0,-125,l),
(0,124,l),
(124,124,l)
);
}
);
width = 500;
}
);
note = slash;
unicode = 47;
},
{
glyphname = zero;
layers = (
{
layerId = m01;
shapes = (
{
closed = 1;
nodes = (
(499,749,l),
(499,125,l),
(375,125,l),
(375,749,l)
);
},
{
closed = 1;
nodes = (
(374,874,l),
(374,750,l),
(125,750,l),
(125,874,l)
);
},
{
closed = 1;
nodes = (
(124,749,l),
(124,125,l),
(0,125,l),
(0,749,l),
(0,749,l)
);
},
{
closed = 1;
nodes = (
(374,124,l),
(374,0,l),
(125,0,l),
(125,124,l),
(125,124,l)
);
}
);
width = 625;
}
);
note = zero;
unicode = 48;
},
{
glyphname = one;
layers = (
{
layerId = m01;
shapes = (
{
closed = 1;
nodes = (
(0,625,l),
(0,749,l),
(125,750,l),
(125,874,l),
(249,874,l),
(249,0,l),
(125,0,l),
(125,625,l)
);
}
);
width = 375;
}
);
note = one;
unicode = 49;
},
{
glyphname = two;
layers = (
{
layerId = m01;
shapes = (
{
closed = 1;
nodes = (
(125,125,l),
(125,249,l),
(249,249,l),
(249,124,l),
(499,124,l),
(499,0,l),
(0,0,l),
(0,125,l)
);
},
{
closed = 1;
nodes = (
(374,499,l),
(374,250,l),
(250,250,l),
(250,499,l)
);
},
{
closed = 1;
nodes = (
(499,749,l),
(499,500,l),
(375,500,l),
(375,749,l)
);
},
{
closed = 1;
nodes = (
(124,749,l),
(124,625,l),
(0,625,l),
(0,749,l)
);
},
{
closed = 1;
nodes = (
(374,874,l),
(374,750,l),
(125,750,l),
(125,874,l)
);
}
);
width = 625;
}
);
note = two;
unicode = 50;
},
{
glyphname = three;
layers = (
{
layerId = m01;
shapes = (
{
closed = 1;
nodes = (
(374,124,l),
(374,0,l),
(125,0,l),
(125,124,l)
);
},
{
closed = 1;
nodes = (
(124,249,l),
(124,125,l),
(0,125,l),
(0,249,l)
);
},
{
closed = 1;
nodes = (
(499,374,l),
(499,125,l),
(375,125,l),
(375,374,l)
);
},
{
closed = 1;
nodes = (
(374,499,l),
(374,375,l),
(250,375,l),
(250,499,l)
);
},
{
closed = 1;
nodes = (
(499,749,l),
(499,500,l),
(375,500,l),
(375,749,l)
);
},
{
closed = 1;
nodes = (
(124,749,l),
(124,625,l),
(0,625,l),
(0,749,l)
);
},
{
closed = 1;
nodes = (
(374,874,l),
(374,750,l),
(125,750,l),
(125,874,l)
);
}
);
width = 625;
}
);
note = three;
unicode = 51;
},
{
glyphname = four;
layers = (
{
layerId = m01;
shapes = (
{
closed = 1;
nodes = (
(0,250,l),
(0,499,l),
(124,499,l),
(124,374,l),
(375,375,l),
(375,625,l),
(250,625,l),
(250,749,l),
(375,750,l),
(375,874,l),
(499,874,l),
(499,374,l),
(624,374,l),
(624,250,l),
(500,250,l),
(499,0,l),
(375,0,l),
(375,250,l)
);
},
{
closed = 1;
nodes = (
(249,624,l),
(249,500,l),
(125,500,l),
(125,624,l)
);
}
);
width = 750;
}
);
note = four;
unicode = 52;
},
{
glyphname = five;
layers = (
{
layerId = m01;
shapes = (
{
closed = 1;
nodes = (
(374,124,l),
(374,0,l),
(125,0,l),
(125,124,l)
);
},
{
closed = 1;
nodes = (
(124,249,l),
(124,125,l),
(0,125,l),
(0,249,l)
);
},
{
closed = 1;
nodes = (
(499,499,l),
(499,125,l),
(375,125,l),
(375,499,l)
);
},
{
closed = 1;
nodes = (
(0,875,l),
(499,874,l),
(499,750,l),
(124,750,l),
(124,624,l),
(374,624,l),
(374,500,l),
(124,500,l),
(124,375,l),
(0,375,l),
(0,625,l)
);
}
);
width = 625;
}
);
note = five;
unicode = 53;
},
{
glyphname = six;
layers = (
{
layerId = m01;
shapes = (
{
closed = 1;
nodes = (
(374,124,l),
(374,0,l),
(125,0,l),
(125,124,l)
);
},
{
closed = 1;
nodes = (
(124,749,l),
(124,624,l),
(374,624,l),
(374,500,l),
(125,500,l),
(124,125,l),
(0,125,l),
(0,749,l)
);
},
{
closed = 1;
nodes = (
(499,499,l),
(499,125,l),
(375,125,l),
(375,499,l)
);
},
{
closed = 1;
nodes = (
(374,874,l),
(374,750,l),
(125,750,l),
(125,874,l)
);
}
);
width = 625;
}
);
note = six;
unicode = 54;
},
{
glyphname = seven;
layers = (
{
layerId = m01;
shapes = (
{
closed = 1;
nodes = (
(249,374,l),
(249,0,l),
(125,0,l),
(125,374,l)
);
},
{
closed = 1;
nodes = (
(374,624,l),
(374,375,l),
(250,375,l),
(250,624,l)
);
},
{
closed = 1;
nodes = (
(499,874,l),
(499,625,l),
(375,625,l),
(375,750,l),
(0,750,l),
(0,874,l)
);
}
);
width = 625;
}
);
note = seven;
unicode = 55;
},
{
glyphname = eight;
layers = (
{
layerId = m01;
shapes = (
{
closed = 1;
nodes = (
(374,124,l),
(374,0,l),
(125,0,l),
(125,124,l)
);
},
{
closed = 1;
nodes = (
(124,374,l),
(124,125,l),
(0,125,l),
(0,374,l)
);
},
{
closed = 1;
nodes = (
(499,374,l),
(499,125,l),
(375,125,l),
(375,374,l)
);
},
{
closed = 1;
nodes = (
(125,499,l),
(374,499,l),
(374,375,l),
(250,375,l),
(125,375,l)
);
},
{
closed = 1;
nodes = (
(124,749,l),
(124,500,l),
(0,500,l),
(0,749,l)
);
},
{
closed = 1;
nodes = (
(499,749,l),
(499,500,l),
(375,500,l),
(375,749,l)
);
},
{
closed = 1;
nodes = (
(374,874,l),
(374,750,l),
(125,750,l),
(125,874,l)
);
}
);
width = 625;
}
);
note = eight;
unicode = 56;
},
{
glyphname = nine;
layers = (
{
layerId = m01;
shapes = (
{
closed = 1;
nodes = (
(374,124,l),
(374,0,l),
(125,0,l),
(125,124,l)
);
},
{
closed = 1;
nodes = (
(375,375,l),
(375,749,l),
(499,749,l),
(499,125,l),
(375,125,l),
(375,250,l),
(125,250,l),
(125,375,l)
);
},
{
closed = 1;
nodes = (
(124,749,l),
(124,375,l),
(0,375,l),
(0,749,l)
);
},
{
closed = 1;
nodes = (
(374,874,l),
(374,750,l),
(125,750,l),
(125,874,l)
);
}
);
width = 625;
}
);
note = nine;
unicode = 57;
},
{
glyphname = colon;
layers = (
{
layerId = m01;
shapes = (
{
closed = 1;
nodes = (
(124,374,l),
(124,250,l),
(0,250,l),
(0,374,l)
);
},
{
closed = 1;
nodes = (
(124,624,l),
(124,500,l),
(0,500,l),
(0,624,l)
);
}
);
width = 250;
}
);
note = colon;
unicode = 58;
},
{
glyphname = semicolon;
layers = (
{
layerId = m01;
shapes = (
{
closed = 1;
nodes = (
(124,124,l),
(124,-125,l),
(0,-125,l),
(0,0,l),
(0,124,l)
);
},
{
closed = 1;
nodes = (
(124,624,l),
(124,500,l),
(0,500,l),
(0,624,l)
);
}
);
width = 250;
}
);
note = semicolon;
unicode = (59,894);
},
{
glyphname = less;
layers = (
{
layerId = m01;
shapes = (
{
closed = 1;
nodes = (
(249,374,l),
(249,250,l),
(125,250,l),
(125,374,l)
);
},
{
closed = 1;
nodes = (
(374,249,l),
(374,125,l),
(250,125,l),
(250,249,l)
);
},
{
closed = 1;
nodes = (
(124,499,l),
(124,375,l),
(0,375,l),
(0,499,l)
);
},
{
closed = 1;
nodes = (
(249,624,l),
(249,500,l),
(125,500,l),
(125,624,l)
);
},
{
closed = 1;
nodes = (
(374,749,l),
(374,625,l),
(250,625,l),
(250,749,l)
);
}
);
width = 500;
}
);
note = less;
unicode = 60;
},
{
glyphname = equal;
layers = (
{
layerId = m01;
shapes = (
{
closed = 1;
nodes = (
(499,374,l),
(499,250,l),
(0,250,l),
(0,374,l)
);
},
{
closed = 1;
nodes = (
(499,624,l),
(499,500,l),
(0,500,l),
(0,624,l)
);
}
);
width = 625;
}
);
note = equal;
unicode = 61;
},
{
glyphname = greater;
layers = (
{
layerId = m01;
shapes = (
{
closed = 1;
nodes = (
(124,249,l),
(124,125,l),
(0,125,l),
(0,249,l)
);
},
{
closed = 1;
nodes = (
(249,374,l),
(249,250,l),
(125,250,l),
(125,374,l)
);
},
{
closed = 1;
nodes = (
(249,624,l),
(249,500,l),
(125,500,l),
(125,624,l)
);
},
{
closed = 1;
nodes = (
(374,499,l),
(374,375,l),
(250,375,l),
(250,499,l)
);
},
{
closed = 1;
nodes = (
(124,749,l),
(124,625,l),
(0,625,l),
(0,749,l)
);
}
);
width = 500;
}
);
note = greater;
unicode = 62;
},
{
glyphname = question;
layers = (
{
layerId = m01;
shapes = (
{
closed = 1;
nodes = (
(374,124,l),
(374,0,l),
(250,0,l),
(250,124,l)
);
},
{
closed = 1;
nodes = (
(499,499,l),
(499,375,l),
(375,375,l),
(374,250,l),
(250,250,l),
(250,499,l)
);
},
{
closed = 1;
nodes = (
(624,749,l),
(624,500,l),
(500,500,l),
(500,749,l)
);
},
{
closed = 1;
nodes = (
(124,749,l),
(124,625,l),
(0,625,l),
(0,749,l)
);
},
{
closed = 1;
nodes = (
(499,874,l),
(499,750,l),
(125,750,l),
(125,874,l)
);
}
);
width = 750;
}
);
note = question;
unicode = 63;
},
{
glyphname = at;
layers = (
{
layerId = m01;
shapes = (
{
closed = 1;
nodes = (
(124,749,l),
(124,125,l),
(0,125,l),
(0,749,l)
);
},
{
closed = 1;
nodes = (
(749,-1,l),
(749,-125,l),
(250,-125,l),
(250,-1,l)
);
},
{
closed = 1;
nodes = (
(249,124,l),
(249,0,l),
(125,0,l),
(125,124,l)
);
},
{
closed = 1;
nodes = (
(874,374,l),
(874,250,l),
(750,250,l),
(750,374,l)
);
},
{
closed = 1;
nodes = (
(999,749,l),
(999,375,l),
(875,375,l),
(875,749,l)
);
},
{
closed = 1;
nodes = (
(624,749,l),
(624,625,l),
(376,625,l),
(376,749,l)
);
},
{
closed = 1;
nodes = (
(249,874,l),
(249,750,l),
(125,750,l),
(125,874,l)
);
},
{
closed = 1;
nodes = (
(749,999,l),
(749,875,l),
(250,875,l),
(250,999,l)
);
},
{
closed = 1;
nodes = (
(874,874,l),
(750,874,l),
(750,750,l),
(874,750,l)
);
},
{
closed = 1;
nodes = (
(374,250,l),
(250,250,l),
(250,624,l),
(374,624,l)
);
},
{
closed = 1;
nodes = (
(749,250,l),
(624,250,l),
(624,624,l),
(749,624,l)
);
},
{
closed = 1;
nodes = (
(749,125,l),
(375,125,l),
(375,249,l),
(749,249,l)
);
}
);
width = 1125;
}
);
note = at;
unicode = 64;
},
{
glyphname = A;
layers = (
{
layerId = m01;
shapes = (
{
closed = 1;
nodes = (
(124,250,l),
(124,0,l),
(0,0,l),
(0,749,l),
(124,749,l),
(124,374,l),
(500,374,l),
(500,749,l),
(624,749,l),
(624,0,l),
(500,0,l),
(500,250,l)
);
},
{
closed = 1;
nodes = (
(499,874,l),
(499,750,l),
(125,750,l),
(125,874,l)
);
}
);
width = 750;
}
);
note = A;
unicode = 65;
},
{
glyphname = B;
layers = (
{
layerId = m01;
shapes = (
{
closed = 1;
nodes = (
(499,874,l),
(499,750,l),
(124,750,l),
(124,499,l),
(499,499,l),
(499,375,l),
(375,375,l),
(375,375,l),
(124,375,l),
(124,0,l),
(0,0,l),
(0,874,l)
);
},
{
closed = 1;
nodes = (
(624,374,l),
(624,125,l),
(500,125,l),
(500,374,l)
);
},
{
closed = 1;
nodes = (
(624,749,l),
(624,500,l),
(500,500,l),
(500,749,l)
);
},
{
closed = 1;
nodes = (
(499,124,l),
(499,0,l),
(125,0,l),
(125,124,l),
(125,124,l)
);
}
);
width = 750;
}
);
note = B;
unicode = 66;
},
{
glyphname = C;
layers = (
{
layerId = m01;
shapes = (
{
closed = 1;
nodes = (
(499,124,l),
(499,0,l),
(125,0,l),
(125,124,l)
);
},
{
closed = 1;
nodes = (
(124,749,l),
(124,125,l),
(0,125,l),
(0,749,l)
);
},
{
closed = 1;
nodes = (
(624,249,l),
(624,125,l),
(500,125,l),
(500,249,l)
);
},
{
closed = 1;
nodes = (
(499,874,l),
(499,750,l),
(125,750,l),
(125,874,l)
);
},
{
closed = 1;
nodes = (
(624,749,l),
(624,625,l),
(500,625,l),
(500,749,l)
);
}
);
width = 750;
}
);
note = C;
unicode = 67;
},
{
glyphname = D;
layers = (
{
layerId = m01;
shapes = (
{
closed = 1;
nodes = (
(499,874,l),
(499,750,l),
(125,750,l),
(124,124,l),
(499,124,l),
(499,0,l),
(0,0,l),
(0,874,l)
);
},
{
closed = 1;
nodes = (
(624,749,l),
(624,125,l),
(500,125,l),
(500,749,l)
);
}
);
width = 750;
}
);
note = D;
unicode = 68;
},
{
glyphname = E;
layers = (
{
layerId = m01;
shapes = (
{
closed = 1;
nodes = (
(624,874,l),
(624,750,l),
(125,750,l),
(124,499,l),
(499,499,l),
(499,375,l),
(125,375,l),
(124,124,l),
(624,124,l),
(624,0,l),
(0,0,l),
(0,874,l)
);
}
);
width = 750;
}
);
note = E;
unicode = 69;
},
{
glyphname = F;
layers = (
{
layerId = m01;
shapes = (
{
closed = 1;
nodes = (
(499,874,l),
(499,750,l),
(125,750,l),
(124,499,l),
(374,499,l),
(374,375,l),
(125,375,l),
(124,0,l),
(0,0,l),
(0,874,l)
);
}
);
width = 625;
}
);
note = F;
unicode = 70;
},
{
glyphname = G;
layers = (
{
layerId = m01;
shapes = (
{
closed = 1;
nodes = (
(499,124,l),
(499,0,l),
(125,0,l),
(125,124,l)
);
},
{
closed = 1;
nodes = (
(124,749,l),
(124,125,l),
(0,125,l),
(0,749,l)
);
},
{
closed = 1;
nodes = (
(375,375,l),
(375,499,l),
(624,499,l),
(624,125,l),
(500,125,l),
(500,375,l)
);
},
{
closed = 1;
nodes = (
(499,874,l),
(499,750,l),
(125,750,l),
(125,874,l)
);
},
{
closed = 1;
nodes = (
(624,749,l),
(624,625,l),
(500,625,l),
(500,749,l)
);
}
);
width = 750;
}
);
note = G;
unicode = 71;
},
{
glyphname = H;
layers = (
{
layerId = m01;
shapes = (
{
closed = 1;
nodes = (
(124,874,l),
(124,499,l),
(500,500,l),
(500,874,l),
(624,874,l),
(624,0,l),
(500,0,l),
(500,375,l),
(125,375,l),
(124,0,l),
(0,0,l),
(0,874,l)
);
}
);
width = 750;
}
);
note = H;
unicode = 72;
},
{
glyphname = I;
layers = (
{
layerId = m01;
shapes = (
{
closed = 1;
nodes = (
(124,874,l),
(124,0,l),
(0,0,l),
(0,874,l)
);
}
);
width = 250;
}
);
note = I;
unicode = 73;
},
{
glyphname = J;
layers = (
{
layerId = m01;
shapes = (
{
closed = 1;
nodes = (
(499,874,l),
(499,125,l),
(375,125,l),
(375,874,l)
);
},
{
closed = 1;
nodes = (
(124,249,l),
(0,249,l),
(0,125,l),
(124,125,l)
);
},
{
closed = 1;
nodes = (
(374,0,l),
(125,0,l),
(125,124,l),
(374,124,l)
);
}
);
width = 625;
}
);
note = J;
unicode = 74;
},
{
glyphname = K;
layers = (
{
layerId = m01;
shapes = (
{
closed = 1;
nodes = (
(124,874,l),
(124,499,l),
(249,499,l),
(249,375,l),
(125,375,l),
(124,0,l),
(0,0,l),
(0,874,l)
);
},
{
closed = 1;
nodes = (
(624,124,l),
(624,0,l),
(500,0,l),
(500,124,l)
);
},
{
closed = 1;
nodes = (
(499,249,l),
(499,125,l),
(375,125,l),
(375,249,l)
);
},
{
closed = 1;
nodes = (
(374,374,l),
(374,250,l),
(250,250,l),
(250,374,l)
);
},
{
closed = 1;
nodes = (
(374,624,l),
(374,500,l),
(250,500,l),
(250,624,l)
);
},
{
closed = 1;
nodes = (
(499,749,l),
(499,625,l),
(375,625,l),
(375,749,l)
);
},
{
closed = 1;
nodes = (
(624,874,l),
(624,750,l),
(500,750,l),
(500,874,l)
);
}
);
width = 750;
}
);
note = K;
unicode = 75;
},
{
glyphname = L;
layers = (
{
layerId = m01;
shapes = (
{
closed = 1;
nodes = (
(124,874,l),
(124,124,l),
(499,124,l),
(499,0,l),
(0,0,l),
(0,874,l)
);
}
);
width = 625;
}
);
note = L;
unicode = 76;
},
{
glyphname = M;
layers = (
{
layerId = m01;
shapes = (
{
closed = 1;
nodes = (
(0,750,l),
(0,874,l),
(749,874,l),
(749,750,l)
);
},
{
closed = 1;
nodes = (
(750,0,l),
(750,749,l),
(874,749,l),
(874,0,l)
);
},
{
closed = 1;
nodes = (
(375,125,l),
(375,749,l),
(499,749,l),
(499,125,l)
);
},
{
closed = 1;
nodes = (
(0,0,l),
(0,749,l),
(124,749,l),
(124,0,l)
);
}
);
width = 1000;
}
);
note = M;
unicode = 77;
},
{
glyphname = N;
layers = (
{
layerId = m01;
shapes = (
{
closed = 1;
nodes = (
(0,750,l),
(0,874,l),
(499,874,l),
(499,750,l)
);
},
{
closed = 1;
nodes = (
(500,0,l),
(500,749,l),
(624,749,l),
(624,0,l)
);
},
{
closed = 1;
nodes = (
(0,0,l),
(0,749,l),
(124,749,l),
(124,0,l)
);
}
);
width = 750;
}
);
note = N;
unicode = 78;
},
{
glyphname = O;
layers = (
{
layerId = m01;
shapes = (
{
closed = 1;
nodes = (
(499,124,l),
(499,0,l),
(125,0,l),
(125,124,l)
);
},
{
closed = 1;
nodes = (
(124,749,l),
(124,125,l),
(0,125,l),
(0,749,l)
);
},
{
closed = 1;
nodes = (
(624,749,l),
(624,125,l),
(500,125,l),
(500,749,l)
);
},
{
closed = 1;
nodes = (
(499,874,l),
(499,750,l),
(125,750,l),
(125,874,l)
);
}
);
width = 750;
}
);
note = O;
unicode = 79;
},
{
glyphname = P;
layers = (
{
layerId = m01;
shapes = (
{
closed = 1;
nodes = (
(499,874,l),
(499,750,l),
(124,750,l),
(124,499,l),
(499,499,l),
(499,375,l),
(375,375,l),
(375,375,l),
(124,375,l),
(124,0,l),
(0,0,l),
(0,874,l)
);
},
{
closed = 1;
nodes = (
(624,749,l),
(624,500,l),
(500,500,l),
(500,749,l)
);
}
);
width = 750;
}
);
note = P;
unicode = 80;
},
{
glyphname = Q;
layers = (
{
layerId = m01;
shapes = (
{
closed = 1;
nodes = (
(375,125,l),
(375,249,l),
(499,249,l),
(499,124,l),
(624,124,l),
(624,0,l),
(125,0,l),
(125,125,l)
);
},
{
closed = 1;
nodes = (
(124,749,l),
(124,125,l),
(0,125,l),
(0,749,l)
);
},
{
closed = 1;
nodes = (
(624,749,l),
(624,250,l),
(500,250,l),
(500,749,l)
);
},
{
closed = 1;
nodes = (
(499,874,l),
(499,750,l),
(125,750,l),
(125,874,l)
);
}
);
width = 750;
}
);
note = Q;
unicode = 81;
},
{
glyphname = R;
layers = (
{
layerId = m01;
shapes = (
{
closed = 1;
nodes = (
(499,874,l),
(499,750,l),
(124,750,l),
(124,499,l),
(499,499,l),
(499,375,l),
(375,375,l),
(375,375,l),
(124,375,l),
(124,0,l),
(0,0,l),
(0,874,l)
);
},
{
closed = 1;
nodes = (
(624,374,l),
(624,0,l),
(500,0,l),
(500,374,l)
);
},
{
closed = 1;
nodes = (
(624,749,l),
(624,500,l),
(500,500,l),
(500,749,l)
);
}
);
width = 750;
}
);
note = R;
unicode = 82;
},
{
glyphname = S;
layers = (
{
layerId = m01;
shapes = (
{
closed = 1;
nodes = (
(499,124,l),
(499,0,l),
(125,0,l),
(125,124,l)
);
},
{
closed = 1;
nodes = (
(124,249,l),
(124,125,l),
(0,125,l),
(0,249,l)
);
},
{
closed = 1;
nodes = (
(624,374,l),
(624,125,l),
(500,125,l),
(500,374,l)
);
},
{
closed = 1;
nodes = (
(125,499,l),
(499,499,l),
(499,375,l),
(250,375,l),
(125,375,l)
);
},
{
closed = 1;
nodes = (
(124,749,l),
(124,500,l),
(0,500,l),
(0,749,l)
);
},
{
closed = 1;
nodes = (
(499,874,l),
(499,750,l),
(125,750,l),
(125,874,l)
);
},
{
closed = 1;
nodes = (
(624,749,l),
(624,625,l),
(500,625,l),
(500,749,l)
);
}
);
width = 750;
}
);
note = S;
unicode = 83;
},
{
glyphname = T;
layers = (
{
layerId = m01;
shapes = (
{
closed = 1;
nodes = (
(0,750,l),
(0,874,l),
(624,874,l),
(624,750,l),
(375,750,l),
(374,0,l),
(250,0,l),
(250,750,l)
);
}
);
width = 750;
}
);
note = T;
unicode = 84;
},
{
glyphname = U;
layers = (
{
layerId = m01;
shapes = (
{
closed = 1;
nodes = (
(499,124,l),
(499,0,l),
(125,0,l),
(125,124,l)
);
},
{
closed = 1;
nodes = (
(124,874,l),
(124,125,l),
(0,125,l),
(0,874,l)
);
},
{
closed = 1;
nodes = (
(624,874,l),
(624,125,l),
(500,125,l),
(500,874,l)
);
}
);
width = 750;
}
);
note = U;
unicode = 85;
},
{
glyphname = V;
layers = (
{
layerId = m01;
shapes = (
{
closed = 1;
nodes = (
(374,124,l),
(374,0,l),
(250,0,l),
(250,124,l)
);
},
{
closed = 1;
nodes = (
(499,374,l),
(499,125,l),
(375,125,l),
(375,374,l)
);
},
{
closed = 1;
nodes = (
(249,373,l),
(249,124,l),
(125,124,l),
(125,373,l)
);
},
{
closed = 1;
nodes = (
(124,874,l),
(124,375,l),
(0,375,l),
(0,874,l)
);
},
{
closed = 1;
nodes = (
(624,874,l),
(624,375,l),
(500,375,l),
(500,874,l)
);
}
);
width = 750;
}
);
note = V;
unicode = 86;
},
{
glyphname = W;
layers = (
{
layerId = m01;
shapes = (
{
closed = 1;
nodes = (
(749,124,l),
(749,0,l),
(0,0,l),
(0,124,l)
);
},
{
closed = 1;
nodes = (
(124,874,l),
(124,125,l),
(0,125,l),
(0,874,l)
);
},
{
closed = 1;
nodes = (
(499,624,l),
(499,125,l),
(375,125,l),
(375,624,l)
);
},
{
closed = 1;
nodes = (
(874,874,l),
(874,125,l),
(750,125,l),
(750,874,l)
);
}
);
width = 1000;
}
);
note = W;
unicode = 87;
},
{
glyphname = X;
layers = (
{
layerId = m01;
shapes = (
{
closed = 1;
nodes = (
(124,249,l),
(124,0,l),
(0,0,l),
(0,249,l)
);
},
{
closed = 1;
nodes = (
(624,249,l),
(624,0,l),
(500,0,l),
(500,249,l)
);
},
{
closed = 1;
nodes = (
(499,374,l),
(499,250,l),
(375,250,l),
(375,374,l)
);
},
{
closed = 1;
nodes = (
(249,374,l),
(249,250,l),
(125,250,l),
(125,374,l)
);
},
{
closed = 1;
nodes = (
(374,499,l),
(374,375,l),
(250,375,l),
(250,499,l)
);
},
{
closed = 1;
nodes = (
(249,624,l),
(249,500,l),
(125,500,l),
(125,624,l)
);
},
{
closed = 1;
nodes = (
(499,624,l),
(499,500,l),
(375,500,l),
(375,624,l)
);
},
{
closed = 1;
nodes = (
(124,874,l),
(124,625,l),
(0,625,l),
(0,874,l)
);
},
{
closed = 1;
nodes = (
(624,874,l),
(624,625,l),
(500,625,l),
(500,874,l)
);
}
);
width = 750;
}
);
note = X;
unicode = 88;
},
{
glyphname = Y;
layers = (
{
layerId = m01;
shapes = (
{
closed = 1;
nodes = (
(374,499,l),
(374,0,l),
(250,0,l),
(250,499,l)
);
},
{
closed = 1;
nodes = (
(249,624,l),
(249,500,l),
(125,500,l),
(125,624,l)
);
},
{
closed = 1;
nodes = (
(499,624,l),
(499,500,l),
(375,500,l),
(375,624,l)
);
},
{
closed = 1;
nodes = (
(124,874,l),
(124,625,l),
(0,625,l),
(0,874,l)
);
},
{
closed = 1;
nodes = (
(624,874,l),
(624,625,l),
(500,625,l),
(500,874,l)
);
}
);
width = 750;
}
);
note = Y;
unicode = 89;
},
{
glyphname = Z;
layers = (
{
layerId = m01;
shapes = (
{
closed = 1;
nodes = (
(124,249,l),
(124,124,l),
(624,124,l),
(624,0,l),
(0,0,l),
(0,249,l)
);
},
{
closed = 1;
nodes = (
(249,374,l),
(249,250,l),
(125,250,l),
(125,374,l)
);
},
{
closed = 1;
nodes = (
(374,499,l),
(374,375,l),
(250,375,l),
(250,499,l)
);
},
{
closed = 1;
nodes = (
(499,624,l),
(499,500,l),
(375,500,l),
(375,624,l)
);
},
{
closed = 1;
nodes = (
(0,750,l),
(0,874,l),
(624,874,l),
(624,750,l),
(624,749,l),
(624,625,l),
(500,625,l),
(500,750,l)
);
}
);
width = 750;
}
);
note = Z;
unicode = 90;
},
{
glyphname = bracketleft;
layers = (
{
layerId = m01;
shapes = (
{
closed = 1;
nodes = (
(249,1249,l),
(249,1125,l),
(124,1125,l),
(124,-126,l),
(249,-126,l),
(249,-250,l),
(0,-250,l),
(0,0,l),
(0,1249,l)
);
}
);
width = 375;
}
);
note = bracketleft;
unicode = 91;
},
{
glyphname = backslash;
layers = (
{
layerId = m01;
shapes = (
{
closed = 1;
nodes = (
(249,874,l),
(249,250,l),
(125,250,l),
(125,874,l)
);
},
{
closed = 1;
nodes = (
(124,1124,l),
(124,875,l),
(0,875,l),
(0,1124,l)
);
},
{
closed = 1;
nodes = (
(374,250,l),
(374,1,l),
(250,1,l),
(250,250,l)
);
}
);
width = 500;
}
);
note = backslash;
unicode = 92;
},
{
glyphname = bracketright;
layers = (
{
layerId = m01;
shapes = (
{
closed = 1;
nodes = (
(0,1125,l),
(0,1249,l),
(249,1249,l),
(249,-250,l),
(125,-250,l),
(125,1125,l)
);
},
{
closed = 1;
nodes = (
(124,-250,l),
(0,-250,l),
(0,-125,l),
(124,-125,l)
);
}
);
width = 375;
}
);
note = bracketright;
unicode = 93;
},
{
glyphname = asciicircum;
layers = (
{
layerId = m01;
shapes = (
{
closed = 1;
nodes = (
(124,999,l),
(124,875,l),
(0,875,l),
(0,999,l)
);
},
{
closed = 1;
nodes = (
(249,1124,l),
(249,1000,l),
(125,1000,l),
(125,1124,l)
);
}
);
width = 375;
}
);
note = asciicircum;
unicode = 94;
},
{
glyphname = underscore;
layers = (
{
layerId = m01;
shapes = (
{
closed = 1;
nodes = (
(0,124,l),
(499,124,l),
(499,0,l),
(250,0,l),
(0,0,l)
);
}
);
width = 625;
}
);
note = underscore;
unicode = 95;
},
{
glyphname = grave;
layers = (
{
layerId = m01;
shapes = (
{
closed = 1;
nodes = (
(124,749,l),
(124,500,l),
(0,500,l),
(0,749,l)
);
}
);
width = 250;
}
);
note = grave;
unicode = 96;
},
{
glyphname = a;
layers = (
{
layerId = m01;
shapes = (
{
closed = 1;
nodes = (
(125,124,l),
(375,124,l),
(375,500,l),
(125,500,l),
(125,624,l),
(499,624,l),
(499,0,l),
(250,0,l),
(125,0,l)
);
},
{
closed = 1;
nodes = (
(124,499,l),
(124,125,l),
(0,125,l),
(0,499,l)
);
}
);
width = 625;
}
);
note = a;
unicode = 97;
},
{
glyphname = b;
layers = (
{
layerId = m01;
shapes = (
{
closed = 1;
nodes = (
(0,874,l),
(124,874,l),
(124,624,l),
(374,624,l),
(374,500,l),
(124,500,l),
(124,124,l),
(374,124,l),
(374,0,l),
(250,0,l),
(0,0,l)
);
},
{
closed = 1;
nodes = (
(499,499,l),
(499,125,l),
(375,125,l),
(375,499,l)
);
}
);
width = 625;
}
);
note = b;
unicode = 98;
},
{
glyphname = c;
layers = (
{
layerId = m01;
shapes = (
{
closed = 1;
nodes = (
(125,124,l),
(499,124,l),
(499,0,l),
(250,0,l),
(125,0,l)
);
},
{
closed = 1;
nodes = (
(124,499,l),
(124,125,l),
(0,125,l),
(0,499,l)
);
},
{
closed = 1;
nodes = (
(125,624,l),
(499,624,l),
(499,500,l),
(250,500,l),
(125,500,l)
);
}
);
width = 625;
}
);
note = c;
unicode = 99;
},
{
glyphname = d;
layers = (
{
layerId = m01;
shapes = (
{
closed = 1;
nodes = (
(125,124,l),
(375,124,l),
(375,500,l),
(125,500,l),
(125,624,l),
(375,624,l),
(375,874,l),
(499,874,l),
(499,0,l),
(250,0,l),
(125,0,l)
);
},
{
closed = 1;
nodes = (
(124,499,l),
(124,125,l),
(0,125,l),
(0,499,l)
);
}
);
width = 625;
}
);
note = d;
unicode = 100;
},
{
glyphname = e;
layers = (
{
layerId = m01;
shapes = (
{
closed = 1;
nodes = (
(125,124,l),
(374,124,l),
(374,0,l),
(250,0,l),
(125,0,l)
);
},
{
closed = 1;
nodes = (
(124,499,l),
(124,374,l),
(375,374,l),
(375,499,l),
(499,499,l),
(499,250,l),
(124,250,l),
(124,125,l),
(0,125,l),
(0,499,l)
);
},
{
closed = 1;
nodes = (
(125,624,l),
(374,624,l),
(374,500,l),
(250,500,l),
(125,500,l)
);
}
);
width = 625;
}
);
note = e;
unicode = 101;
},
{
glyphname = f;
layers = (
{
layerId = m01;
shapes = (
{
closed = 1;
nodes = (
(124,499,l),
(124,124,l),
(249,124,l),
(249,0,l),
(124,0,l),
(124,-375,l),
(0,-375,l),
(0,-125,l),
(0,499,l)
);
},
{
closed = 1;
nodes = (
(125,624,l),
(374,624,l),
(374,500,l),
(250,500,l),
(125,500,l)
);
}
);
width = 500;
}
);
note = f;
unicode = 102;
},
{
glyphname = g;
layers = (
{
layerId = m01;
shapes = (
{
closed = 1;
nodes = (
(374,-251,l),
(374,-375,l),
(125,-375,l),
(125,-251,l)
);
},
{
closed = 1;
nodes = (
(125,0,l),
(125,124,l),
(375,124,l),
(375,499,l),
(499,499,l),
(499,-250,l),
(375,-250,l),
(375,0,l)
);
},
{
closed = 1;
nodes = (
(124,499,l),
(124,125,l),
(0,125,l),
(0,499,l)
);
},
{
closed = 1;
nodes = (
(125,624,l),
(374,624,l),
(374,500,l),
(250,500,l),
(125,500,l)
);
}
);
width = 625;
}
);
note = g;
unicode = 103;
},
{
glyphname = h;
layers = (
{
layerId = m01;
shapes = (
{
closed = 1;
nodes = (
(124,874,l),
(124,624,l),
(374,624,l),
(374,500,l),
(124,500,l),
(124,0,l),
(0,0,l),
(0,874,l)
);
},
{
closed = 1;
nodes = (
(499,499,l),
(499,0,l),
(375,0,l),
(375,499,l)
);
}
);
width = 625;
}
);
note = h;
unicode = 104;
},
{
glyphname = i;
layers = (
{
layerId = m01;
shapes = (
{
closed = 1;
nodes = (
(124,624,l),
(124,0,l),
(0,0,l),
(0,624,l)
);
},
{
closed = 1;
nodes = (
(124,874,l),
(124,750,l),
(0,750,l),
(0,874,l)
);
}
);
width = 250;
}
);
note = i;
unicode = 105;
},
{
glyphname = j;
layers = (
{
layerId = m01;
shapes = (
{
closed = 1;
nodes = (
(124,-251,l),
(124,-375,l),
(0,-375,l),
(0,-251,l)
);
},
{
closed = 1;
nodes = (
(249,624,l),
(249,-250,l),
(125,-250,l),
(125,624,l)
);
},
{
closed = 1;
nodes = (
(249,874,l),
(249,750,l),
(125,750,l),
(125,874,l)
);
}
);
width = 375;
}
);
note = j;
unicode = 106;
},
{
glyphname = k;
layers = (
{
layerId = m01;
shapes = (
{
closed = 1;
nodes = (
(249,374,l),
(249,250,l),
(125,250,l),
(125,374,l)
);
},
{
closed = 1;
nodes = (
(124,0,l),
(0,0,l),
(0,874,l),
(124,874,l)
);
},
{
closed = 1;
nodes = (
(374,499,l),
(374,375,l),
(250,375,l),
(250,499,l)
);
},
{
closed = 1;
nodes = (
(499,624,l),
(499,500,l),
(375,500,l),
(375,624,l)
);
},
{
closed = 1;
nodes = (
(374,249,l),
(374,125,l),
(250,125,l),
(250,249,l)
);
},
{
closed = 1;
nodes = (
(499,124,l),
(499,0,l),
(375,0,l),
(375,124,l)
);
}
);
width = 625;
}
);
note = k;
unicode = 107;
},
{
glyphname = l;
layers = (
{
layerId = m01;
shapes = (
{
closed = 1;
nodes = (
(124,874,l),
(124,0,l),
(0,0,l),
(0,874,l)
);
}
);
width = 250;
}
);
note = l;
unicode = 108;
},
{
glyphname = m;
layers = (
{
layerId = m01;
shapes = (
{
closed = 1;
nodes = (
(125,500,l),
(124,0,l),
(0,0,l),
(0,624,l),
(499,624,l),
(499,500,l),
(499,0,l),
(375,0,l),
(375,500,l)
);
},
{
closed = 1;
nodes = (
(874,499,l),
(874,0,l),
(750,0,l),
(750,499,l)
);
},
{
closed = 1;
nodes = (
(500,624,l),
(749,624,l),
(749,500,l),
(625,500,l),
(500,500,l)
);
}
);
width = 1000;
}
);
note = m;
unicode = 109;
},
{
glyphname = n;
layers = (
{
layerId = m01;
shapes = (
{
closed = 1;
nodes = (
(374,624,l),
(374,500,l),
(124,500,l),
(124,0,l),
(0,0,l),
(0,624,l)
);
},
{
closed = 1;
nodes = (
(499,499,l),
(499,0,l),
(375,0,l),
(375,499,l)
);
}
);
width = 625;
}
);
note = n;
unicode = 110;
},
{
glyphname = o;
layers = (
{
layerId = m01;
shapes = (
{
closed = 1;
nodes = (
(125,124,l),
(374,124,l),
(374,0,l),
(250,0,l),
(125,0,l)
);
},
{
closed = 1;
nodes = (
(124,499,l),
(124,125,l),
(0,125,l),
(0,499,l)
);
},
{
closed = 1;
nodes = (
(499,499,l),
(499,125,l),
(375,125,l),
(375,499,l)
);
},
{
closed = 1;
nodes = (
(125,624,l),
(374,624,l),
(374,500,l),
(250,500,l),
(125,500,l)
);
}
);
width = 625;
}
);
note = o;
unicode = 111;
},
{
glyphname = p;
layers = (
{
layerId = m01;
shapes = (
{
closed = 1;
nodes = (
(374,624,l),
(374,500,l),
(124,500,l),
(124,124,l),
(374,124,l),
(374,0,l),
(124,0,l),
(124,-375,l),
(0,-375,l),
(0,-125,l),
(0,624,l)
);
},
{
closed = 1;
nodes = (
(499,499,l),
(499,125,l),
(375,125,l),
(375,499,l)
);
}
);
width = 625;
}
);
note = p;
unicode = 112;
},
{
glyphname = q;
layers = (
{
layerId = m01;
shapes = (
{
closed = 1;
nodes = (
(125,0,l),
(125,124,l),
(375,124,l),
(375,500,l),
(125,500,l),
(125,624,l),
(499,624,l),
(499,-375,l),
(375,-375,l),
(375,0,l)
);
},
{
closed = 1;
nodes = (
(124,499,l),
(124,125,l),
(0,125,l),
(0,499,l)
);
}
);
width = 625;
}
);
note = q;
unicode = 113;
},
{
glyphname = r;
layers = (
{
layerId = m01;
shapes = (
{
closed = 1;
nodes = (
(125,499,l),
(125,624,l),
(374,624,l),
(374,500,l),
(124,500,l),
(124,0,l),
(0,0,l),
(0,499,l)
);
}
);
width = 500;
}
);
note = r;
unicode = 114;
},
{
glyphname = s;
layers = (
{
layerId = m01;
shapes = (
{
closed = 1;
nodes = (
(0,124,l),
(374,124,l),
(374,0,l),
(250,0,l),
(0,0,l)
);
},
{
closed = 1;
nodes = (
(125,250,l),
(125,375,l),
(0,375,l),
(0,499,l),
(124,499,l),
(124,374,l),
(374,374,l),
(374,249,l),
(499,249,l),
(499,125,l),
(375,125,l),
(375,250,l)
);
},
{
closed = 1;
nodes = (
(125,624,l),
(499,624,l),
(499,500,l),
(250,500,l),
(125,500,l)
);
}
);
width = 625;
}
);
note = s;
unicode = 115;
},
{
glyphname = t;
layers = (
{
layerId = m01;
shapes = (
{
closed = 1;
nodes = (
(125,124,l),
(374,124,l),
(374,0,l),
(125,0,l)
);
},
{
closed = 1;
nodes = (
(124,874,l),
(124,624,l),
(249,624,l),
(249,500,l),
(124,500,l),
(124,125,l),
(0,125,l),
(0,874,l)
);
}
);
width = 500;
}
);
note = t;
unicode = 116;
},
{
glyphname = u;
layers = (
{
layerId = m01;
shapes = (
{
closed = 1;
nodes = (
(125,124,l),
(375,124,l),
(375,624,l),
(499,624,l),
(499,0,l),
(125,0,l)
);
},
{
closed = 1;
nodes = (
(124,624,l),
(124,125,l),
(0,125,l),
(0,624,l)
);
}
);
width = 625;
}
);
note = u;
unicode = 117;
},
{
glyphname = v;
layers = (
{
layerId = m01;
shapes = (
{
closed = 1;
nodes = (
(624,624,l),
(624,375,l),
(500,375,l),
(500,624,l)
);
},
{
closed = 1;
nodes = (
(499,374,l),
(499,125,l),
(375,125,l),
(375,374,l)
);
},
{
closed = 1;
nodes = (
(249,374,l),
(249,125,l),
(125,125,l),
(125,374,l)
);
},
{
closed = 1;
nodes = (
(124,624,l),
(124,375,l),
(0,375,l),
(0,624,l)
);
},
{
closed = 1;
nodes = (
(374,0,l),
(250,0,l),
(250,124,l),
(374,124,l)
);
}
);
width = 750;
}
);
note = v;
unicode = 118;
},
{
glyphname = w;
layers = (
{
layerId = m01;
shapes = (
{
closed = 1;
nodes = (
(500,124,l),
(749,124,l),
(749,0,l),
(750,0,l),
(500,0,l)
);
},
{
closed = 1;
nodes = (
(125,124,l),
(374,124,l),
(374,0,l),
(250,0,l),
(125,0,l)
);
},
{
closed = 1;
nodes = (
(124,624,l),
(124,125,l),
(0,125,l),
(0,624,l)
);
},
{
closed = 1;
nodes = (
(499,624,l),
(499,125,l),
(375,125,l),
(375,624,l)
);
},
{
closed = 1;
nodes = (
(874,624,l),
(874,125,l),
(750,125,l),
(750,624,l)
);
}
);
width = 1000;
}
);
note = w;
unicode = 119;
},
{
glyphname = x;
layers = (
{
layerId = m01;
shapes = (
{
closed = 1;
nodes = (
(624,624,l),
(624,500,l),
(500,500,l),
(500,624,l)
);
},
{
closed = 1;
nodes = (
(499,499,l),
(499,375,l),
(375,375,l),
(375,499,l)
);
},
{
closed = 1;
nodes = (
(374,374,l),
(374,250,l),
(250,250,l),
(250,374,l)
);
},
{
closed = 1;
nodes = (
(499,249,l),
(499,125,l),
(375,125,l),
(375,249,l)
);
},
{
closed = 1;
nodes = (
(624,124,l),
(624,0,l),
(500,0,l),
(500,124,l)
);
},
{
closed = 1;
nodes = (
(249,249,l),
(249,125,l),
(125,125,l),
(125,249,l)
);
},
{
closed = 1;
nodes = (
(124,124,l),
(124,0,l),
(0,0,l),
(0,124,l)
);
},
{
closed = 1;
nodes = (
(249,499,l),
(249,375,l),
(125,375,l),
(125,499,l)
);
},
{
closed = 1;
nodes = (
(124,623,l),
(124,499,l),
(0,499,l),
(0,623,l)
);
}
);
width = 750;
}
);
note = x;
unicode = 120;
},
{
glyphname = y;
layers = (
{
layerId = m01;
shapes = (
{
closed = 1;
nodes = (
(374,-251,l),
(374,-375,l),
(125,-375,l),
(125,-251,l)
);
},
{
closed = 1;
nodes = (
(125,0,l),
(125,124,l),
(375,124,l),
(375,624,l),
(499,624,l),
(499,-250,l),
(375,-250,l),
(375,0,l)
);
},
{
closed = 1;
nodes = (
(124,624,l),
(124,125,l),
(0,125,l),
(0,624,l)
);
}
);
width = 625;
}
);
note = y;
unicode = 121;
},
{
glyphname = z;
layers = (
{
layerId = m01;
shapes = (
{
closed = 1;
nodes = (
(0,124,l),
(125,124,l),
(125,249,l),
(250,249,l),
(250,374,l),
(375,374,l),
(375,500,l),
(0,500,l),
(0,624,l),
(624,624,l),
(624,500,l),
(499,500,l),
(499,375,l),
(374,375,l),
(374,250,l),
(249,250,l),
(249,124,l),
(624,124,l),
(624,0,l),
(500,0,l),
(0,0,l)
);
}
);
width = 750;
}
);
note = z;
unicode = 122;
},
{
glyphname = braceleft;
layers = (
{
layerId = m01;
shapes = (
{
closed = 1;
nodes = (
(499,-126,l),
(499,-250,l),
(375,-250,l),
(375,-126,l)
);
},
{
closed = 1;
nodes = (
(125,250,l),
(125,374,l),
(249,374,l),
(249,249,l),
(374,249,l),
(374,-125,l),
(250,-125,l),
(250,250,l)
);
},
{
closed = 1;
nodes = (
(124,499,l),
(124,375,l),
(0,375,l),
(0,499,l)
);
},
{
closed = 1;
nodes = (
(249,624,l),
(249,500,l),
(125,500,l),
(125,624,l)
);
},
{
closed = 1;
nodes = (
(374,1124,l),
(374,625,l),
(250,625,l),
(250,1124,l)
);
},
{
closed = 1;
nodes = (
(499,1249,l),
(499,1125,l),
(375,1125,l),
(375,1249,l)
);
}
);
width = 625;
}
);
note = braceleft;
unicode = 123;
},
{
glyphname = bar;
layers = (
{
layerId = m01;
shapes = (
{
closed = 1;
nodes = (
(124,1249,l),
(124,-250,l),
(0,-250,l),
(0,0,l),
(0,1249,l)
);
}
);
width = 250;
}
);
note = bar;
unicode = 124;
},
{
glyphname = braceright;
layers = (
{
layerId = m01;
shapes = (
{
closed = 1;
nodes = (
(0,-250,l),
(0,-126,l),
(124,-126,l),
(124,-250,l)
);
},
{
closed = 1;
nodes = (
(125,-125,l),
(125,249,l),
(250,249,l),
(250,374,l),
(374,374,l),
(374,250,l),
(249,250,l),
(249,-125,l)
);
},
{
closed = 1;
nodes = (
(375,375,l),
(375,499,l),
(499,499,l),
(499,375,l)
);
},
{
closed = 1;
nodes = (
(250,500,l),
(250,624,l),
(374,624,l),
(374,500,l)
);
},
{
closed = 1;
nodes = (
(125,625,l),
(125,1124,l),
(249,1124,l),
(249,625,l)
);
},
{
closed = 1;
nodes = (
(0,1125,l),
(0,1249,l),
(124,1249,l),
(124,1125,l)
);
}
);
width = 625;
}
);
note = braceright;
unicode = 125;
},
{
glyphname = asciitilde;
layers = (
{
layerId = m01;
shapes = (
{
closed = 1;
nodes = (
(249,499,l),
(249,375,l),
(124,375,l),
(124,250,l),
(0,250,l),
(0,499,l)
);
},
{
closed = 1;
nodes = (
(375,374,l),
(375,499,l),
(499,499,l),
(499,250,l),
(250,250,l),
(250,374,l)
);
}
);
width = 625;
}
);
note = asciitilde;
unicode = 126;
},
{
glyphname = section;
layers = (
{
layerId = m01;
shapes = (
{
closed = 1;
nodes = (
(124,124,l),
(124,0,l),
(0,0,l),
(0,124,l)
);
},
{
closed = 1;
nodes = (
(375,0,l),
(375,124,l),
(499,124,l),
(499,-125,l),
(125,-125,l),
(125,0,l)
);
},
{
closed = 1;
nodes = (
(374,249,l),
(374,125,l),
(250,125,l),
(250,249,l)
);
},
{
closed = 1;
nodes = (
(249,374,l),
(249,250,l),
(125,250,l),
(125,374,l)
);
},
{
closed = 1;
nodes = (
(124,624,l),
(124,375,l),
(0,375,l),
(0,624,l)
);
},
{
closed = 1;
nodes = (
(499,499,l),
(499,250,l),
(375,250,l),
(375,499,l)
);
},
{
closed = 1;
nodes = (
(374,624,l),
(374,500,l),
(250,500,l),
(250,624,l)
);
},
{
closed = 1;
nodes = (
(249,749,l),
(249,625,l),
(125,625,l),
(125,749,l)
);
},
{
closed = 1;
nodes = (
(374,999,l),
(374,875,l),
(124,875,l),
(124,750,l),
(0,750,l),
(0,999,l)
);
},
{
closed = 1;
nodes = (
(499,874,l),
(499,750,l),
(375,750,l),
(375,874,l)
);
}
);
width = 625;
}
);
note = section;
unicode = 167;
},
{
glyphname = registered;
lastChange = "2023-03-05 06:49:50 +0000";
layers = (
{
layerId = m01;
shapes = (
{
closed = 1;
nodes = (
(125,750,l),
(125,126,l),
(1,126,l),
(1,750,l)
);
},
{
closed = 1;
nodes = (
(750,0,l),
(750,-124,l),
(251,-124,l),
(251,0,l)
);
},
{
closed = 1;
nodes = (
(250,125,l),
(250,1,l),
(126,1,l),
(126,125,l)
);
},
{
closed = 1;
nodes = (
(875,125,l),
(875,2,l),
(751,2,l),
(751,125,l)
);
},
{
closed = 1;
nodes = (
(1000,750,l),
(1000,125,l),
(876,125,l),
(876,750,l)
);
},
{
closed = 1;
nodes = (
(625,750,l),
(625,626,l),
(251,626,l),
(251,750,l)
);
},
{
closed = 1;
nodes = (
(875,875,l),
(875,751,l),
(751,751,l),
(751,875,l)
);
},
{
closed = 1;
nodes = (
(250,875,l),
(250,751,l),
(126,751,l),
(126,875,l)
);
},
{
closed = 1;
nodes = (
(750,1000,l),
(750,876,l),
(251,876,l),
(251,1000,l)
);
},
{
closed = 1;
nodes = (
(625,500,l),
(625,376,l),
(376,376,l),
(376,500,l)
);
},
{
closed = 1;
nodes = (
(375,625,l),
(375,126,l),
(251,126,l),
(251,625,l),
(251,625,l)
);
},
{
closed = 1;
nodes = (
(750,501,l),
(626,501,l),
(626,625,l),
(750,625,l)
);
},
{
closed = 1;
nodes = (
(750,126,l),
(626,126,l),
(626,375,l),
(750,375,l)
);
}
);
width = 1125;
}
);
note = registered;
unicode = 174;
},
{
glyphname = copyright;
lastChange = "2023-03-05 06:49:56 +0000";
layers = (
{
layerId = m01;
shapes = (
{
closed = 1;
nodes = (
(124,750,l),
(124,126,l),
(0,126,l),
(0,750,l)
);
},
{
closed = 1;
nodes = (
(749,0,l),
(749,-124,l),
(250,-124,l),
(250,0,l)
);
},
{
closed = 1;
nodes = (
(249,125,l),
(249,1,l),
(125,1,l),
(125,125,l)
);
},
{
closed = 1;
nodes = (
(874,125,l),
(874,2,l),
(750,2,l),
(750,125,l)
);
},
{
closed = 1;
nodes = (
(999,750,l),
(999,125,l),
(875,125,l),
(875,750,l)
);
},
{
closed = 1;
nodes = (
(623,750,l),
(623,626,l),
(375,626,l),
(375,750,l)
);
},
{
closed = 1;
nodes = (
(874,875,l),
(874,751,l),
(750,751,l),
(750,875,l)
);
},
{
closed = 1;
nodes = (
(249,875,l),
(249,751,l),
(125,751,l),
(125,875,l)
);
},
{
closed = 1;
nodes = (
(749,1000,l),
(749,876,l),
(250,876,l),
(250,1000,l)
);
},
{
closed = 1;
nodes = (
(623,250,l),
(623,126,l),
(375,126,l),
(375,250,l)
);
},
{
closed = 1;
nodes = (
(374,625,l),
(374,251,l),
(250,251,l),
(250,625,l),
(250,625,l)
);
}
);
width = 1125;
}
);
note = copyright;
unicode = 169;
},
{
glyphname = Euro;
layers = (
{
layerId = m01;
shapes = (
{
closed = 1;
nodes = (
(499,124,l),
(499,0,l),
(250,0,l),
(250,124,l)
);
},
{
closed = 1;
nodes = (
(0,250,l),
(0,374,l),
(125,374,l),
(125,500,l),
(0,500,l),
(0,624,l),
(124,624,l),
(125,749,l),
(249,749,l),
(249,624,l),
(499,624,l),
(499,500,l),
(249,500,l),
(249,374,l),
(499,374,l),
(499,250,l),
(249,250,l),
(249,125,l),
(125,125,l),
(125,250,l)
);
},
{
closed = 1;
nodes = (
(499,874,l),
(499,750,l),
(250,750,l),
(250,874,l)
);
}
);
width = 625;
}
);
note = Euro;
unicode = 8364;
},
{
glyphname = Scaron;
layers = (
{
layerId = m01;
shapes = (
{
closed = 1;
nodes = (
(249,1124,l),
(249,1000,l),
(125,1000,l),
(125,1124,l)
);
},
{
closed = 1;
nodes = (
(499,1124,l),
(499,1000,l),
(375,1000,l),
(375,1124,l)
);
},
{
closed = 1;
nodes = (
(374,999,l),
(374,875,l),
(250,875,l),
(250,999,l)
);
},
{
closed = 1;
nodes = (
(499,124,l),
(499,0,l),
(125,0,l),
(125,124,l)
);
},
{
closed = 1;
nodes = (
(124,249,l),
(124,125,l),
(0,125,l),
(0,249,l)
);
},
{
closed = 1;
nodes = (
(624,374,l),
(624,125,l),
(500,125,l),
(500,374,l)
);
},
{
closed = 1;
nodes = (
(125,499,l),
(499,499,l),
(499,375,l),
(250,375,l),
(125,375,l)
);
},
{
closed = 1;
nodes = (
(124,749,l),
(124,500,l),
(0,500,l),
(0,749,l)
);
},
{
closed = 1;
nodes = (
(499,874,l),
(499,750,l),
(125,750,l),
(125,874,l)
);
},
{
closed = 1;
nodes = (
(624,749,l),
(624,625,l),
(500,625,l),
(500,749,l)
);
}
);
width = 750;
}
);
note = Scaron;
unicode = 352;
},
{
glyphname = scaron;
layers = (
{
layerId = m01;
shapes = (
{
closed = 1;
nodes = (
(375,874,l),
(375,750,l),
(126,750,l),
(126,874,l)
);
},
{
closed = 1;
nodes = (
(0,124,l),
(374,124,l),
(374,0,l),
(250,0,l),
(0,0,l)
);
},
{
closed = 1;
nodes = (
(125,250,l),
(125,375,l),
(0,375,l),
(0,499,l),
(124,499,l),
(124,374,l),
(374,374,l),
(374,249,l),
(499,249,l),
(499,125,l),
(375,125,l),
(375,250,l)
);
},
{
closed = 1;
nodes = (
(125,624,l),
(499,624,l),
(499,500,l),
(250,500,l),
(125,500,l)
);
}
);
width = 625;
}
);
note = scaron;
unicode = 353;
},
{
glyphname = Zcaron;
layers = (
{
layerId = m01;
shapes = (
{
closed = 1;
nodes = (
(124,249,l),
(124,124,l),
(624,124,l),
(624,0,l),
(0,0,l),
(0,249,l)
);
},
{
closed = 1;
nodes = (
(249,374,l),
(249,250,l),
(125,250,l),
(125,374,l)
);
},
{
closed = 1;
nodes = (
(374,499,l),
(374,375,l),
(250,375,l),
(250,499,l)
);
},
{
closed = 1;
nodes = (
(499,624,l),
(499,500,l),
(375,500,l),
(375,624,l)
);
},
{
closed = 1;
nodes = (
(0,750,l),
(0,874,l),
(374,874,l),
(382,874,l),
(499,874,l),
(499,874,l),
(624,874,l),
(624,750,l),
(624,750,l),
(624,625,l),
(500,625,l),
(500,750,l)
);
},
{
closed = 1;
nodes = (
(249,1124,l),
(249,1000,l),
(125,1000,l),
(125,1124,l)
);
},
{
closed = 1;
nodes = (
(499,1124,l),
(499,1000,l),
(375,1000,l),
(375,1124,l)
);
},
{
closed = 1;
nodes = (
(374,999,l),
(374,875,l),
(250,875,l),
(250,999,l)
);
}
);
width = 750;
}
);
note = Zcaron;
unicode = 142;
},
{
glyphname = zcaron;
layers = (
{
layerId = m01;
shapes = (
{
closed = 1;
nodes = (
(499,874,l),
(499,750,l),
(125,750,l),
(125,874,l)
);
},
{
closed = 1;
nodes = (
(0,124,l),
(125,124,l),
(125,249,l),
(250,249,l),
(250,374,l),
(375,374,l),
(375,500,l),
(0,500,l),
(0,624,l),
(624,624,l),
(624,500,l),
(499,500,l),
(499,375,l),
(374,375,l),
(374,250,l),
(249,250,l),
(249,124,l),
(624,124,l),
(624,0,l),
(500,0,l),
(0,0,l)
);
}
);
width = 750;
}
);
note = zcaron;
unicode = 158;
},
{
glyphname = Eth;
layers = (
{
layerId = m01;
shapes = (
{
closed = 1;
nodes = (
(0,375,l),
(0,499,l),
(125,500,l),
(125,874,l),
(624,874,l),
(624,750,l),
(250,750,l),
(249,499,l),
(499,499,l),
(499,375,l),
(250,375,l),
(249,124,l),
(624,124,l),
(624,0,l),
(125,0,l),
(125,375,l)
);
},
{
closed = 1;
nodes = (
(749,749,l),
(749,125,l),
(625,125,l),
(625,749,l)
);
}
);
width = 875;
}
);
note = Eth;
unicode = 208;
},
{
glyphname = eth;
layers = (
{
layerId = m01;
shapes = (
{
closed = 1;
nodes = (
(124,499,l),
(124,125,l),
(0,125,l),
(0,499,l)
);
},
{
closed = 1;
nodes = (
(374,750,l),
(125,750,l),
(125,874,l),
(374,874,l)
);
},
{
closed = 1;
nodes = (
(125,124,l),
(375,124,l),
(375,500,l),
(125,500,l),
(125,624,l),
(375,624,l),
(375,874,l),
(499,874,l),
(499,0,l),
(250,0,l),
(125,0,l)
);
}
);
width = 625;
}
);
note = eth;
unicode = 240;
},
{
glyphname = Cacute;
layers = (
{
layerId = m01;
shapes = (
{
closed = 1;
nodes = (
(499,124,l),
(499,0,l),
(125,0,l),
(125,124,l)
);
},
{
closed = 1;
nodes = (
(124,749,l),
(124,125,l),
(0,125,l),
(0,749,l)
);
},
{
closed = 1;
nodes = (
(624,249,l),
(624,125,l),
(500,125,l),
(500,249,l)
);
},
{
closed = 1;
nodes = (
(250,875,l),
(250,999,l),
(374,999,l),
(374,874,l),
(499,874,l),
(499,750,l),
(125,750,l),
(125,875,l)
);
},
{
closed = 1;
nodes = (
(624,749,l),
(624,625,l),
(500,625,l),
(500,749,l)
);
},
{
closed = 1;
nodes = (
(499,1124,l),
(499,1000,l),
(375,1000,l),
(375,1124,l)
);
}
);
width = 750;
}
);
note = Cacute;
unicode = 198;
},
{
glyphname = cacute;
layers = (
{
layerId = m01;
shapes = (
{
closed = 1;
nodes = (
(374,874,l),
(374,750,l),
(250,750,l),
(250,874,l)
);
},
{
closed = 1;
nodes = (
(499,999,l),
(499,875,l),
(375,875,l),
(375,999,l)
);
},
{
closed = 1;
nodes = (
(125,124,l),
(499,124,l),
(499,0,l),
(250,0,l),
(125,0,l)
);
},
{
closed = 1;
nodes = (
(124,499,l),
(124,125,l),
(0,125,l),
(0,499,l)
);
},
{
closed = 1;
nodes = (
(125,624,l),
(499,624,l),
(499,500,l),
(250,500,l),
(125,500,l)
);
}
);
width = 625;
}
);
note = cacute;
unicode = 230;
},
{
glyphname = Ccaron;
layers = (
{
layerId = m01;
shapes = (
{
closed = 1;
nodes = (
(499,124,l),
(499,0,l),
(125,0,l),
(125,124,l)
);
},
{
closed = 1;
nodes = (
(124,749,l),
(124,125,l),
(0,125,l),
(0,749,l)
);
},
{
closed = 1;
nodes = (
(624,249,l),
(624,125,l),
(500,125,l),
(500,249,l)
);
},
{
closed = 1;
nodes = (
(250,874,l),
(250,999,l),
(374,999,l),
(374,874,l),
(499,874,l),
(499,750,l),
(125,750,l),
(125,874,l)
);
},
{
closed = 1;
nodes = (
(624,749,l),
(624,625,l),
(500,625,l),
(500,749,l)
);
},
{
closed = 1;
nodes = (
(249,1124,l),
(249,1000,l),
(125,1000,l),
(125,1124,l)
);
},
{
closed = 1;
nodes = (
(499,1124,l),
(499,1000,l),
(375,1000,l),
(375,1124,l)
);
}
);
width = 750;
}
);
note = Ccaron;
unicode = 200;
},
{
glyphname = ccaron;
layers = (
{
layerId = m01;
shapes = (
{
closed = 1;
nodes = (
(374,874,l),
(374,750,l),
(250,750,l),
(250,874,l)
);
},
{
closed = 1;
nodes = (
(499,999,l),
(499,875,l),
(375,875,l),
(375,999,l)
);
},
{
closed = 1;
nodes = (
(249,999,l),
(249,875,l),
(125,875,l),
(125,999,l)
);
},
{
closed = 1;
nodes = (
(125,124,l),
(499,124,l),
(499,0,l),
(250,0,l),
(125,0,l)
);
},
{
closed = 1;
nodes = (
(124,499,l),
(124,125,l),
(0,125,l),
(0,499,l)
);
},
{
closed = 1;
nodes = (
(125,624,l),
(499,624,l),
(499,500,l),
(250,500,l),
(125,500,l)
);
}
);
width = 625;
}
);
note = ccaron;
unicode = 232;
},
{
glyphname = .001;
layers = (
{
layerId = m01;
shapes = (
{
closed = 1;
nodes = (
(499,874,l),
(499,750,l),
(125,750,l),
(125,874,l)
);
},
{
closed = 1;
nodes = (
(0,124,l),
(125,124,l),
(125,249,l),
(250,249,l),
(250,374,l),
(375,374,l),
(375,500,l),
(0,500,l),
(0,624,l),
(624,624,l),
(624,500,l),
(499,500,l),
(499,375,l),
(374,375,l),
(374,250,l),
(249,250,l),
(249,124,l),
(624,124,l),
(624,0,l),
(500,0,l),
(0,0,l)
);
}
);
width = 750;
}
);
note = ".001";
unicode = 382;
},
{
glyphname = .002;
layers = (
{
layerId = m01;
shapes = (
{
closed = 1;
nodes = (
(499,124,l),
(499,0,l),
(125,0,l),
(125,124,l)
);
},
{
closed = 1;
nodes = (
(124,749,l),
(124,125,l),
(0,125,l),
(0,749,l)
);
},
{
closed = 1;
nodes = (
(624,249,l),
(624,125,l),
(500,125,l),
(500,249,l)
);
},
{
closed = 1;
nodes = (
(250,875,l),
(250,999,l),
(374,999,l),
(374,874,l),
(499,874,l),
(499,750,l),
(125,750,l),
(125,875,l)
);
},
{
closed = 1;
nodes = (
(624,749,l),
(624,625,l),
(500,625,l),
(500,749,l)
);
},
{
closed = 1;
nodes = (
(499,1124,l),
(499,1000,l),
(375,1000,l),
(375,1124,l)
);
}
);
width = 750;
}
);
note = ".002";
unicode = 262;
},
{
glyphname = .003;
layers = (
{
layerId = m01;
shapes = (
{
closed = 1;
nodes = (
(374,874,l),
(374,750,l),
(250,750,l),
(250,874,l)
);
},
{
closed = 1;
nodes = (
(499,999,l),
(499,875,l),
(375,875,l),
(375,999,l)
);
},
{
closed = 1;
nodes = (
(125,124,l),
(499,124,l),
(499,0,l),
(250,0,l),
(125,0,l)
);
},
{
closed = 1;
nodes = (
(124,499,l),
(124,125,l),
(0,125,l),
(0,499,l)
);
},
{
closed = 1;
nodes = (
(125,624,l),
(499,624,l),
(499,500,l),
(250,500,l),
(125,500,l)
);
}
);
width = 625;
}
);
note = ".003";
unicode = 263;
},
{
glyphname = .004;
layers = (
{
layerId = m01;
shapes = (
{
closed = 1;
nodes = (
(499,124,l),
(499,0,l),
(125,0,l),
(125,124,l)
);
},
{
closed = 1;
nodes = (
(124,749,l),
(124,125,l),
(0,125,l),
(0,749,l)
);
},
{
closed = 1;
nodes = (
(624,249,l),
(624,125,l),
(500,125,l),
(500,249,l)
);
},
{
closed = 1;
nodes = (
(250,874,l),
(250,999,l),
(374,999,l),
(374,874,l),
(499,874,l),
(499,750,l),
(125,750,l),
(125,874,l)
);
},
{
closed = 1;
nodes = (
(624,749,l),
(624,625,l),
(500,625,l),
(500,749,l)
);
},
{
closed = 1;
nodes = (
(249,1124,l),
(249,1000,l),
(125,1000,l),
(125,1124,l)
);
},
{
closed = 1;
nodes = (
(499,1124,l),
(499,1000,l),
(375,1000,l),
(375,1124,l)
);
}
);
width = 750;
}
);
note = ".004";
unicode = 268;
},
{
glyphname = .005;
layers = (
{
layerId = m01;
shapes = (
{
closed = 1;
nodes = (
(374,874,l),
(374,750,l),
(250,750,l),
(250,874,l)
);
},
{
closed = 1;
nodes = (
(499,999,l),
(499,875,l),
(375,875,l),
(375,999,l)
);
},
{
closed = 1;
nodes = (
(249,999,l),
(249,875,l),
(125,875,l),
(125,999,l)
);
},
{
closed = 1;
nodes = (
(125,124,l),
(499,124,l),
(499,0,l),
(250,0,l),
(125,0,l)
);
},
{
closed = 1;
nodes = (
(124,499,l),
(124,125,l),
(0,125,l),
(0,499,l)
);
},
{
closed = 1;
nodes = (
(125,624,l),
(499,624,l),
(499,500,l),
(250,500,l),
(125,500,l)
);
}
);
width = 625;
}
);
note = ".005";
unicode = 269;
},
{
glyphname = .006;
layers = (
{
layerId = m01;
shapes = (
{
closed = 1;
nodes = (
(124,499,l),
(124,125,l),
(0,125,l),
(0,499,l)
);
},
{
closed = 1;
nodes = (
(374,750,l),
(125,750,l),
(125,874,l),
(374,874,l)
);
},
{
closed = 1;
nodes = (
(125,124,l),
(375,124,l),
(375,500,l),
(125,500,l),
(125,624,l),
(375,624,l),
(375,874,l),
(499,874,l),
(499,0,l),
(250,0,l),
(125,0,l)
);
}
);
width = 625;
}
);
note = ".006";
unicode = 273;
},
{
glyphname = .007;
layers = (
{
layerId = m01;
shapes = (
{
closed = 1;
nodes = (
(0,375,l),
(0,499,l),
(125,500,l),
(125,874,l),
(624,874,l),
(624,750,l),
(250,750,l),
(249,499,l),
(499,499,l),
(499,375,l),
(250,375,l),
(249,124,l),
(624,124,l),
(624,0,l),
(125,0,l),
(125,375,l)
);
},
{
closed = 1;
nodes = (
(749,749,l),
(749,125,l),
(625,125,l),
(625,749,l)
);
}
);
width = 875;
}
);
note = ".007";
unicode = 272;
},
{
glyphname = .008;
layers = (
{
layerId = m01;
shapes = (
{
closed = 1;
nodes = (
(250,124,l),
(250,375,l),
(125,375,l),
(125,499,l),
(250,499,l),
(250,749,l),
(374,749,l),
(374,124,l),
(624,124,l),
(624,0,l),
(0,0,l),
(0,124,l)
);
},
{
closed = 1;
nodes = (
(749,249,l),
(749,125,l),
(625,125,l),
(625,249,l)
);
},
{
closed = 1;
nodes = (
(375,874,l),
(624,874,l),
(624,750,l),
(500,750,l),
(375,750,l)
);
},
{
closed = 1;
nodes = (
(499,375,l),
(375,375,l),
(375,499,l),
(499,499,l)
);
},
{
closed = 1;
nodes = (
(749,625,l),
(625,625,l),
(625,749,l),
(749,749,l)
);
}
